<svg width="270.000000" height="120.000000" viewBox="0 0 270 120" fill="none" xmlns="http://www.w3.org/2000/svg" xmlns:xlink="http://www.w3.org/1999/xlink">
	<desc>
			Created with Pixso.
	</desc>
	<defs>
		<clipPath id="clip11_2712">
			<rect id="diagram 1" width="70.000000" height="70.000000" transform="translate(100.000000 25.000000)" fill="white" fill-opacity="0"/>
		</clipPath>
	</defs>
	<rect id="Rectangle 3" rx="4.000000" width="270.000000" height="120.000000" fill="#F5F4FA" fill-opacity="1.000000"/>
	<rect id="diagram 1" width="70.000000" height="70.000000" transform="translate(100.000000 25.000000)" fill="#FFFFFF" fill-opacity="0"/>
	<g clip-path="url(#clip11_2712)">
		<path id="Vector" d="M132.65 57.7351L134.982 57.7351L134.982 68.2296L132.65 68.2296L132.65 57.7351Z" fill="#2196F3" fill-opacity="1.000000" fill-rule="nonzero"/>
		<path id="Vector" d="M141.978 62.3993L144.31 62.3993L144.31 68.2296L141.978 68.2296L141.978 62.3993Z" fill="#2196F3" fill-opacity="1.000000" fill-rule="nonzero"/>
		<path id="Vector" d="M123.321 65.8975L125.653 65.8975L125.653 68.2296L123.321 68.2296L123.321 65.8975Z" fill="#2196F3" fill-opacity="1.000000" fill-rule="nonzero"/>
		<path id="Vector" d="M116.325 64.7314L118.657 64.7314L118.657 68.2296L116.325 68.2296L116.325 64.7314Z" fill="#2196F3" fill-opacity="1.000000" fill-rule="nonzero"/>
		<path id="Vector" d="M103.498 86.8865L159.469 86.8865C161.401 86.8865 162.967 85.3202 162.967 83.3883L162.967 78.7241C162.967 76.7923 161.401 75.226 159.469 75.226L158.303 75.226L158.303 46.1469L164.926 39.8725C166.464 40.6303 168.324 40.1703 169.33 38.7816C170.337 37.3935 170.196 35.4821 168.997 34.2568C167.797 33.0316 165.89 32.8488 164.48 33.8241C163.07 34.8 162.569 36.6499 163.293 38.2037L158.303 42.9345L158.303 40.2443C158.303 38.3124 156.736 36.7461 154.805 36.7461L108.162 36.7461C106.231 36.7461 104.664 38.3124 104.664 40.2443L104.664 75.226L103.498 75.226C101.566 75.226 100 76.7923 100 78.7241L100 83.3883C100 85.3202 101.566 86.8865 103.498 86.8865ZM166.465 35.58C167.109 35.58 167.631 36.1021 167.631 36.7461C167.631 37.39 167.109 37.9121 166.465 37.9121C165.821 37.9121 165.299 37.39 165.299 36.7461C165.299 36.1021 165.821 35.58 166.465 35.58ZM106.996 40.2443C106.996 39.6003 107.518 39.0782 108.162 39.0782L154.805 39.0782C155.449 39.0782 155.971 39.6003 155.971 40.2443L155.971 45.1414L153.639 47.3573L153.639 42.5764C153.639 41.9324 153.116 41.4103 152.473 41.4103L110.495 41.4103C109.851 41.4103 109.328 41.9324 109.328 42.5764L109.328 71.7278C109.328 72.3717 109.851 72.8938 110.495 72.8938L152.473 72.8938C153.116 72.8938 153.639 72.3717 153.639 71.7278L153.639 50.5651L155.971 48.3554L155.971 75.226L106.996 75.226L106.996 40.2443ZM117.491 55.403C115.913 55.3984 114.528 56.4495 114.108 57.9702C113.689 59.491 114.338 61.104 115.695 61.9091C117.051 62.7142 118.779 62.5121 119.913 61.4149L123.966 63.4487C124.437 63.6844 125.008 63.5739 125.358 63.1805L133.974 53.4871L142.444 59.8338C142.899 60.1743 143.533 60.1378 143.945 59.7478L151.306 52.7748L151.306 70.5617L111.661 70.5617L111.661 43.7424L151.306 43.7424L151.306 49.5619L143.056 57.3747L134.515 50.9716C134.03 50.6084 133.348 50.6767 132.945 51.1294L124.21 60.9571L120.945 59.3242C120.969 59.1841 120.983 59.0429 120.989 58.9012C120.989 56.9693 119.423 55.403 117.491 55.403ZM118.657 58.9012C118.657 59.5451 118.135 60.0672 117.491 60.0672C116.847 60.0672 116.325 59.5451 116.325 58.9012C116.325 58.2572 116.847 57.7351 117.491 57.7351C118.135 57.7351 118.657 58.2572 118.657 58.9012ZM125.653 77.5581L137.314 77.5581L137.314 78.7241C137.314 79.3681 136.792 79.8902 136.148 79.8902L126.819 79.8902C126.175 79.8902 125.653 79.3681 125.653 78.7241L125.653 77.5581ZM102.332 78.7241C102.332 78.0802 102.854 77.5581 103.498 77.5581L123.321 77.5581L123.321 78.7241C123.321 80.656 124.887 82.2223 126.819 82.2223L136.148 82.2223C138.08 82.2223 139.646 80.656 139.646 78.7241L139.646 77.5581L159.469 77.5581C160.113 77.5581 160.635 78.0802 160.635 78.7241L160.635 83.3883C160.635 84.0323 160.113 84.5544 159.469 84.5544L103.498 84.5544C102.854 84.5544 102.332 84.0323 102.332 83.3883L102.332 78.7241Z" fill="#212121" fill-opacity="1.000000" fill-rule="nonzero"/>
	</g>
</svg>
