<svg width="270.000000" height="120.000000" viewBox="0 0 270 120" fill="none" xmlns="http://www.w3.org/2000/svg" xmlns:xlink="http://www.w3.org/1999/xlink">
	<desc>
			Created with Pixso.
	</desc>
	<defs>
		<clipPath id="clip11_2691">
			<rect id="antenna 1" width="70.000000" height="70.000000" transform="translate(100.000000 25.000000)" fill="white" fill-opacity="0"/>
		</clipPath>
	</defs>
	<rect id="Rectangle 3" rx="4.000000" width="270.000000" height="120.000000" fill="#F5F4FA" fill-opacity="1.000000"/>
	<rect id="antenna 1" width="70.000000" height="70.000000" transform="translate(100.000000 25.000000)" fill="#FFFFFF" fill-opacity="0"/>
	<g clip-path="url(#clip11_2691)">
		<path id="Vector" d="M167.316 73.3385L148.847 54.7337L150.897 44.6373C151.426 44.8438 151.988 44.9518 152.556 44.9558L152.57 44.9558C155.178 44.9866 157.317 42.8974 157.348 40.2893C157.379 37.6812 155.289 35.542 152.681 35.5111C150.073 35.4803 147.934 37.5695 147.903 40.1776C147.896 40.7357 147.989 41.2905 148.176 41.8163L137.326 43.1405L119.628 25.35C119.411 25.1285 119.114 25.0025 118.804 25C118.498 25.0016 118.204 25.1235 117.987 25.3395L114.679 28.6295C114.223 29.0851 114.223 29.8236 114.679 30.2792L116.459 32.0852C109.562 44.7682 111.802 60.4741 121.97 70.7228C122.064 70.8121 122.172 70.8843 122.29 70.9363C122.216 71.3311 122.178 71.7317 122.176 72.1333L122.176 85.6667L108.176 85.6667C104.956 85.6705 102.346 88.28 102.342 91.5L102.342 93.8333C102.342 94.4776 102.865 95 103.509 95L157.176 95C157.82 95 158.342 94.4776 158.342 93.8333L158.342 91.5C158.339 88.28 155.729 85.6705 152.509 85.6667L138.509 85.6667L138.509 79.6688C140.702 80.1288 142.937 80.3633 145.178 80.3688C150.555 80.363 155.846 79.0225 160.578 76.4675L162.367 78.2677C162.584 78.4892 162.881 78.6152 163.191 78.6177C163.497 78.6161 163.791 78.4941 164.008 78.2782L167.316 74.9882C167.772 74.5326 167.772 73.7941 167.316 73.3385ZM150.925 38.6348C151.838 37.726 153.316 37.7301 154.224 38.6437C155.133 39.5574 155.129 41.0348 154.215 41.9435C153.778 42.3785 153.186 42.6227 152.569 42.6225L152.562 42.6225C151.274 42.6158 150.234 41.5658 150.241 40.2771C150.245 39.6602 150.492 39.0699 150.929 38.6348L150.925 38.6348ZM148.178 46.301L146.869 52.7445L144.298 50.158L148.178 46.301ZM146.853 44.3282L142.653 48.5037L139.404 45.237L146.853 44.3282ZM152.509 88C154.442 88 156.009 89.567 156.009 91.5L156.009 92.6667L104.676 92.6667L104.676 91.5C104.676 89.567 106.243 88 108.176 88L152.509 88ZM136.176 83.3333L136.176 85.6667L124.509 85.6667L124.509 83.3333L136.176 83.3333ZM124.509 81L124.509 72.1333C124.509 69.303 127.126 67 130.342 67C133.559 67 136.176 69.303 136.176 72.1333L136.176 81L124.509 81ZM138.509 77.29L138.509 72.1333C138.509 68.0162 134.846 64.6667 130.342 64.6667C127.431 64.622 124.708 66.1042 123.165 68.5738C114.289 59.2249 112.29 45.2874 118.181 33.8207L158.872 74.7455C152.589 77.9419 145.386 78.8418 138.509 77.29ZM163.204 75.7943L161.56 74.1412L118.792 31.1157L117.141 29.4613L118.792 27.8163L136.15 45.272C136.158 45.272 136.163 45.2872 136.171 45.293L164.859 74.1493L163.204 75.7943Z" fill="#212121" fill-opacity="1.000000" fill-rule="nonzero"/>
		<path id="Vector" d="M130.353 69.3333L130.342 69.3333C128.409 69.3304 126.84 70.8951 126.837 72.8281C126.834 74.7611 128.399 76.3304 130.332 76.3333L130.342 76.3333C132.275 76.3362 133.844 74.7716 133.847 72.8386C133.85 70.9055 132.286 69.3362 130.353 69.3333ZM131.169 73.6605C130.95 73.8789 130.652 74.0012 130.342 74C129.698 73.9966 129.178 73.4716 129.182 72.8273C129.183 72.5189 129.307 72.2237 129.526 72.0062C129.743 71.7902 130.036 71.6682 130.342 71.6667C130.986 71.67 131.506 72.195 131.503 72.8393C131.501 73.1477 131.377 73.4429 131.159 73.6605L131.169 73.6605Z" fill="#2196F3" fill-opacity="1.000000" fill-rule="nonzero"/>
	</g>
</svg>
